<?xml version="1.0" encoding="utf-8"?>
<!-- Uploaded to: SVG Repo, www.svgrepo.com, Generator: SVG Repo Mixer Tools -->
<svg width="800px" height="800px" viewBox="0 -121.5 1267 1267" class="icon"  version="1.1" xmlns="http://www.w3.org/2000/svg"><path d="M1051.38 273.973c33.020 11.97 15.241 134.751 13.383 147.531-6.449 44.481-46.39 320.287-301.37 425.313-200.83 82.733-405.414 6.124-517.636-94.338-26.164-23.418-95.503-85.468-79.673-120.661 31.921-71.078 345.732 113.19 588.060-14.614 196.29-103.508 248.947-360.723 297.234-343.232z" fill="#FADC4A" /><path d="M1056.052 465.003c16.589 9.55-18.316 113.74-71.483 194.93-25.485 38.868-90.884 135.679-221.16 186.884-128.862 50.657-241.398 25.315-289.778 13.698-111.502-26.768-215.443-90.518-208.796-109.121 9.917-28.023 246.632 112.653 467.988 28.087 213.743-81.661 297.64-329.222 323.23-314.477z" fill="#D6BC40" /><path d="M587.187 907.507c-43.977-0.069-86.645-5.543-127.414-15.79-83.384-20.24-167.008-63.032-231.282-119.587-37.665-33.138-107.773-94.823-86.843-149.651 13.907-36.395 55.391-38.737 69.037-39.508 26.165-1.479 59.331 2.093 97.673 6.227 61.71 6.657 138.493 14.941 217.327 5.115 1.060-0.152 2.285-0.24 3.529-0.24 14.45 0 26.164 11.714 26.165 26.165 0 13.412-10.091 24.467-23.096 25.987-84.988 10.596-165.131 1.948-229.524-5.013-36.055-3.924-67.192-7.248-89.119-6.018-15.62 0.877-22.371 4.028-23.091 5.939-1.478 3.924 0.864 16.418 19.062 38.829 16.602 20.449 38.777 39.954 53.442 52.868 57.171 50.302 134.907 90.008 213.246 108.938 94.955 22.933 190.782 16.314 277.14-19.152 82.852-34.014 153.877-92.886 205.395-170.074 46.156-69.208 74.387-150.069 79.516-227.635 1.793-27.081 1.714-68.513-3.86-103.549-6.777-42.663-18.512-57.131-24.373-58.95-3.205-0.995-10.361 3.989-18.668 13.083-14.023 15.241-30.090 40.112-48.602 68.892-52.409 81.321-124.179 192.705-253.042 256.143-3.369 1.69-7.342 2.679-11.545 2.679-14.477 0-26.215-11.737-26.215-26.215 0-10.276 5.912-19.168 14.518-23.467 116.010-57.108 183.242-161.428 232.328-237.608 19.86-30.809 37.011-57.432 54.083-75.984 8.869-9.642 35.873-39 72.699-27.564 31.085 9.656 51.453 43.538 60.546 100.737 7.85 49.478 5.35 100.736 4.395 115.219-5.716 86.619-37.035 176.614-88.203 253.279-57.393 85.913-136.542 151.418-229.061 189.422-54.785 23.078-118.471 36.488-185.287 36.488-0.308 0-0.615 0-0.923-0.001z" fill="#000000" /><path d="M600.949 632.316c-0.006 0-0.008 0-0.016 0-14.45 0-26.164-11.714-26.165-26.165 0-11.976 8.044-22.072 19.023-25.178l3.638-1.013c2.179-0.653 4.682-1.032 7.274-1.032 14.45 0 26.164 11.714 26.165 26.165 0 11.954-8.017 22.036-18.968 25.162l-4.109 1.132c-2.068 0.588-4.443 0.928-6.899 0.929z" fill="#000000" /><path d="M536.846 780.267q-10.467 0-21.023-0.443c-43.788-1.832-87.522-9.446-126.482-22.031-10.478-3.575-17.881-13.332-17.881-24.818 0-14.45 11.714-26.164 26.165-26.165 2.787 0 5.473 0.436 7.993 1.245 37.31 12.217 80.479 19.448 125.287 19.793 58.86 2.697 127.189-11.457 190.104-42.385 132.983-65.282 189.030-179.793 207.005-225.988 3.857-9.945 13.349-16.868 24.458-16.868 14.45 0 26.164 11.714 26.165 26.165 0 3.468-0.675 6.779-1.9 9.807-20.085 51.723-83.077 180.363-232.504 253.835-59.99 30.185-130.736 47.86-205.613 47.86-0.624 0-1.245-0.002-1.867-0.005zM986.557 257.488c-91.852-15.948-147.505-94.285-147.283-112.576 0.115-5.789 1.636-11.199 4.232-15.935 2.684-4.569 7.18-8.572 12.577-10.868-3.792 1.997 4.253-3.053 13.843-1.22s15.084 9.157 17.673 12.428c11.604 14.731 22.789 30.089 36.92 42.453 28.521 24.857 58.872 36.985 90.099 35.964 21.167-0.694 41.865-7.286 61.488-19.624 3.974-2.564 8.83-4.086 14.041-4.086 14.45 0 26.164 11.714 26.165 26.165 0 9.368-4.924 17.585-12.322 22.207-30.201 18.891-67.21 27.838-87.763 27.616-10.936-0.076-21.589-1.061-31.952-2.881z" fill="#000000" /></svg>