<?xml version="1.0" encoding="iso-8859-1"?>
<!-- Uploaded to: SVG Repo, www.svgrepo.com, Generator: SVG Repo Mixer Tools -->
<svg height="800px" width="800px" version="1.1" id="Layer_1" xmlns="http://www.w3.org/2000/svg" xmlns:xlink="http://www.w3.org/1999/xlink" 
	 viewBox="0 0 512 512" xml:space="preserve">
<path style="fill:#5EAC24;" d="M286.13,7.604c-114.008,0-206.429,247.358-206.429,328.086s92.422,168.707,206.429,168.707
	L286.13,7.604L286.13,7.604z"/>
<path style="fill:#4E901E;" d="M170.89,89.874c-5.695,12.62-11.252,26.284-16.665,41.003
	c-25.891,70.404-44.682,156.54-44.682,204.814c0,42.618,15.055,86.931,41.64,123.482c36.186,27.207,83.356,45.224,134.946,45.224
	V7.604C243.453,7.604,203.802,42.266,170.89,89.874z"/>
<path style="fill:#FFE477;" d="M432.301,335.69c0,80.728-65.443,168.707-146.17,168.707s-146.17-87.978-146.17-168.707
	S205.402,7.604,286.13,7.604S432.301,254.962,432.301,335.69z"/>
<path style="fill:#FFDA44;" d="M220.998,335.69c0-66.669,44.635-246.979,105.651-307.76c-12.867-12.817-26.461-20.326-40.52-20.326
	c-80.728,0-146.17,247.358-146.17,328.086s65.443,168.707,146.17,168.707c14.059,0,27.652-2.675,40.52-7.509
	C265.634,473.966,220.998,402.359,220.998,335.69z"/>
<path style="fill:#FF7956;" d="M286.131,473.98c-38.658,0-66.646-26.948-79.89-43.012c-22.457-27.241-35.865-62.859-35.865-95.279
	c0-35.628,15.314-114.125,40.944-183.818C244.437,61.815,274.736,38.02,286.131,38.02s41.694,23.795,74.811,113.853
	c25.628,69.692,40.944,148.19,40.944,183.818c0,32.419-13.408,68.037-35.865,95.279C352.777,447.032,324.788,473.98,286.131,473.98z
	"/>
<g>
	<path style="fill:#FF6243;" d="M286.131,38.02c-11.394,0-41.694,23.795-74.812,113.853
		c-25.628,69.692-40.944,148.19-40.944,183.818c0,32.419,13.408,68.036,35.865,95.279c13.244,16.064,41.233,43.012,79.89,43.012
		c0.442,0,0.876-0.021,1.315-0.028c-40.002-32.714-66.447-86.949-66.447-138.262c0-59.428,35.467-209.152,86.388-284.023
		C298.028,41.709,290.614,38.02,286.131,38.02z"/>
	<path style="fill:#FF6243;" d="M347.114,235.941c-6.307-24.685-13.865-49.218-21.856-70.946c-1.45-3.942,0.571-8.312,4.512-9.761
		c3.941-1.455,8.313,0.571,9.761,4.512c8.167,22.206,15.883,47.251,22.317,72.43c1.039,4.069-1.341,8.563-5.485,9.249
		C350.163,242.453,347.992,239.378,347.114,235.941z"/>
	<path style="fill:#FF6243;" d="M355.486,272.36c-0.922-4.535-1.923-9.224-2.979-13.936c-0.918-4.098,1.66-8.165,5.758-9.082
		c4.099-0.923,8.166,1.66,9.082,5.758c1.078,4.811,2.102,9.599,3.043,14.233c0.836,4.116-1.794,8.286-5.937,8.966
		C358.908,279.205,356.218,275.964,355.486,272.36z"/>
</g>
<path style="fill:#3E3D42;" d="M346.28,360.061c0,33.22-26.93,60.15-60.15,60.15s-60.15-26.93-60.15-60.15
	s26.93-169.647,60.15-169.647S346.28,326.841,346.28,360.061z"/>
<g>
	<path style="fill:#2D2D30;" d="M263.605,384.506c-1.998,0-3.954-0.811-5.373-2.22c-1.419-1.419-2.23-3.376-2.23-5.384
		c0-1.997,0.811-3.964,2.23-5.373c1.418-1.419,3.375-2.23,5.373-2.23c2.006,0,3.964,0.811,5.384,2.23
		c1.41,1.419,2.22,3.376,2.22,5.373c0,2.007-0.811,3.964-2.22,5.384C267.569,383.695,265.611,384.506,263.605,384.506z"/>
	<path style="fill:#2D2D30;" d="M289.458,350.936c-1.998,0-3.954-0.811-5.373-2.22c-1.419-1.419-2.23-3.376-2.23-5.384
		c0-1.997,0.811-3.964,2.23-5.373c1.418-1.419,3.375-2.23,5.373-2.23c2.006,0,3.964,0.811,5.384,2.23
		c1.41,1.419,2.22,3.376,2.22,5.373c0,2.007-0.811,3.964-2.22,5.384C293.423,350.124,291.465,350.936,289.458,350.936z"/>
	<path style="fill:#2D2D30;" d="M324.437,350.936c-1.998,0-3.954-0.811-5.373-2.22c-1.419-1.419-2.231-3.376-2.231-5.384
		c0-1.997,0.811-3.964,2.231-5.373c1.418-1.419,3.375-2.23,5.373-2.23c2.006,0,3.964,0.811,5.384,2.23
		c1.41,1.419,2.22,3.376,2.22,5.373c0,2.007-0.811,3.964-2.22,5.384C328.401,350.124,326.443,350.936,324.437,350.936z"/>
	<path style="fill:#2D2D30;" d="M256.001,335.728c-1.998,0-3.954-0.811-5.373-2.22c-1.419-1.419-2.23-3.376-2.23-5.384
		c0-1.997,0.811-3.964,2.23-5.373c1.418-1.419,3.375-2.231,5.373-2.231c2.006,0,3.964,0.811,5.384,2.231
		c1.41,1.419,2.22,3.376,2.22,5.373c0,2.007-0.811,3.964-2.22,5.384C259.965,334.916,258.007,335.728,256.001,335.728z"/>
	<path style="fill:#2D2D30;" d="M300.925,305.163c-1.998,0-3.954-0.811-5.373-2.22c-1.419-1.419-2.23-3.376-2.23-5.384
		c0-1.997,0.811-3.964,2.23-5.373c1.418-1.419,3.375-2.231,5.373-2.231c2.006,0,3.964,0.811,5.384,2.231
		c1.41,1.419,2.22,3.376,2.22,5.373c0,2.007-0.811,3.964-2.22,5.384C304.889,304.352,302.932,305.163,300.925,305.163z"/>
	<path style="fill:#2D2D30;" d="M304.666,392.11c-1.998,0-3.954-0.811-5.373-2.22c-1.419-1.419-2.231-3.376-2.231-5.384
		c0-1.997,0.811-3.964,2.231-5.373c1.418-1.419,3.375-2.231,5.373-2.231c2.006,0,3.964,0.811,5.384,2.231
		c1.41,1.419,2.22,3.376,2.22,5.373c0,2.007-0.811,3.964-2.22,5.384C308.631,391.299,306.673,392.11,304.666,392.11z"/>
	<path style="fill:#2D2D30;" d="M297.062,251.109c-1.998,0-3.954-0.811-5.373-2.22c-1.419-1.419-2.23-3.376-2.23-5.384
		c0-1.997,0.811-3.964,2.23-5.373c1.418-1.419,3.375-2.23,5.373-2.23c2.006,0,3.964,0.811,5.384,2.23
		c1.41,1.419,2.22,3.376,2.22,5.373c0,2.007-0.811,3.964-2.22,5.384C301.027,250.297,299.069,251.109,297.062,251.109z"/>
	<path style="fill:#2D2D30;" d="M271.209,286.205c-1.998,0-3.954-0.811-5.373-2.22c-1.419-1.419-2.231-3.376-2.231-5.384
		c0-1.997,0.811-3.964,2.231-5.373c1.418-1.419,3.375-2.23,5.373-2.23c2.006,0,3.964,0.811,5.384,2.23
		c1.41,1.419,2.22,3.376,2.22,5.373c0,2.007-0.811,3.964-2.22,5.384C275.173,285.393,273.215,286.205,271.209,286.205z"/>
</g>
<path d="M368.078,149.247c-32.254-87.71-64.303-118.832-81.947-118.832s-49.694,31.121-81.948,118.832
	c-25.92,70.487-41.411,150.149-41.411,186.443c0,34.128,14.056,71.554,37.602,100.115c14.096,17.097,43.981,45.779,85.757,45.779
	c41.778,0,71.662-28.682,85.756-45.779c23.546-28.559,37.602-65.986,37.602-100.115C409.49,299.397,393.999,219.735,368.078,149.247
	z M360.153,426.132c-12.391,15.029-38.484,40.244-74.022,40.244c-35.537,0-61.632-25.215-74.023-40.244
	c-21.37-25.922-34.129-59.733-34.129-90.441c0-34.962,15.14-112.297,40.476-181.193c17.873-48.604,34.042-75.066,44.46-88.708
	c12.632-16.543,21.041-20.166,23.215-20.166s10.583,3.623,23.215,20.166c10.416,13.642,26.586,40.104,44.459,88.708
	c25.336,68.896,40.476,146.23,40.476,181.193C394.282,366.4,381.523,400.21,360.153,426.132z"/>
<path d="M316.232,208.631c-9.395-17.377-19.242-25.823-30.102-25.823c-10.859,0-20.707,8.446-30.102,25.823
	c-6.906,12.773-13.548,30.29-19.744,52.066c-11.061,38.88-17.908,81.848-17.908,99.362c0,37.361,30.395,67.754,67.753,67.754
	c13.66,0,26.827-4.047,38.08-11.706c3.472-2.362,4.372-7.093,2.007-10.564c-2.362-3.472-7.092-4.371-10.564-2.007
	c-8.719,5.934-18.928,9.07-29.523,9.07c-28.973,0-52.545-23.572-52.545-52.546c0-16.563,6.962-58.77,17.327-95.2
	c14.037-49.338,27.744-66.844,35.219-66.844c7.474,0,21.183,17.506,35.22,66.844c10.365,36.43,17.327,78.637,17.327,95.2
	c0,10.238-2.943,20.158-8.512,28.686c-2.296,3.517-1.306,8.228,2.21,10.525c3.516,2.294,8.227,1.307,10.525-2.21
	c7.187-11.008,10.986-23.803,10.986-37.001c0-17.514-6.847-60.483-17.908-99.362C329.781,238.922,323.138,221.404,316.232,208.631z"
	/>
<path d="M396.626,138.75C373.348,75.453,335.284,0,286.131,0C248.974,0,211.98,23.466,176.18,69.746
	c-28.117,36.347-54.799,86.622-75.131,141.568c-1.458,3.939,0.488,8.508,4.493,9.771c4.002,1.261,8.635-1.424,9.771-4.493
	c19.81-53.536,45.698-102.381,72.896-137.539c11.984-15.492,24.182-28.268,36.407-38.221c-20.12,27.341-36.631,64.341-48.979,97.92
	c-28.112,76.443-43.699,158.525-43.28,196.941c0.968,88.75,59.933,136.49,68.295,143.457
	c-67.729-29.137-113.347-89.47-113.347-143.457c0-14.283,3.038-34.105,8.783-57.323c1.009-4.077-1.478-8.199-5.555-9.208
	c-4.078-1.005-8.198,1.477-9.208,5.555c-6.038,24.396-9.229,45.48-9.229,60.977c0,42.063,23.002,85.946,63.111,120.394
	C177.191,492.142,230.788,512,286.131,512c40.214,0,79.004-20.189,109.225-56.847c28.311-34.342,44.548-77.884,44.548-119.462
	C439.905,297.272,424.737,215.193,396.626,138.75z M286.131,496.792c-78.038,0-138.567-86.602-138.567-161.102
	c0-37.105,14.841-116.899,42.346-191.691c30.099-81.849,65.17-128.792,96.222-128.792s66.123,46.943,96.222,128.791
	c27.504,74.793,42.345,154.585,42.345,191.691C424.697,410.19,364.168,496.792,286.131,496.792z"/>
<path d="M93.374,258.86c4.256,1.166,8.481-1.804,9.469-5.097c1.298-4.327,2.674-8.723,4.087-13.07
	c1.299-3.993-0.884-8.284-4.879-9.583c-3.99-1.302-8.284,0.884-9.583,4.879c-1.45,4.456-2.86,8.966-4.192,13.402
	C87.069,253.414,89.323,257.751,93.374,258.86z"/>
</svg>